<svg width="34" height="47" viewBox="0 0 34 47" fill="none" xmlns="http://www.w3.org/2000/svg">
<path d="M32.7197 28.5843C33.0126 28.2914 33.4873 28.2914 33.7802 28.5843C34.0731 28.8772 34.0731 29.352 33.7802 29.6449L17.5302 45.8949C17.2373 46.1878 16.7626 46.1878 16.4697 45.8949L0.219678 29.6449C-0.0732157 29.352 -0.0732157 28.8772 0.219678 28.5843C0.512571 28.2914 0.987331 28.2914 1.28022 28.5843L17 44.304L32.7197 28.5843Z" fill="#50514F"/>
<path opacity="0.5" d="M19.0312 2.03125C19.0312 1.49253 18.8172 0.97587 18.4363 0.594936C18.0553 0.214003 17.5387 0 16.9999 0C16.4612 0 15.9446 0.214003 15.5636 0.594936C15.1827 0.97587 14.9687 1.49253 14.9687 2.03125H19.0312ZM14.9687 2.03125V44.3939L15.9393 45.3646H18.0156L19.0313 44.3938L19.0312 2.03125H14.9687Z" fill="#50514F"/>
</svg>
